<?xml version="1.0" encoding="UTF-8" standalone="no"?>
<!-- Created with Inkscape (http://www.inkscape.org/) -->

<svg
   xmlns:dc="http://purl.org/dc/elements/1.1/"
   xmlns:cc="http://creativecommons.org/ns#"
   xmlns:rdf="http://www.w3.org/1999/02/22-rdf-syntax-ns#"
   xmlns:svg="http://www.w3.org/2000/svg"
   xmlns="http://www.w3.org/2000/svg"
   xmlns:xlink="http://www.w3.org/1999/xlink"
   xmlns:sodipodi="http://sodipodi.sourceforge.net/DTD/sodipodi-0.dtd"
   xmlns:inkscape="http://www.inkscape.org/namespaces/inkscape"
   width="744.09448819"
   height="1052.3622047"
   id="svg2"
   version="1.1"
   inkscape:version="0.48.3.1 r9886"
   sodipodi:docname="clickoff.svg">
  <defs
     id="defs4">
    <linearGradient
       inkscape:collect="always"
       id="linearGradient3780">
      <stop
         style="stop-color:#ffff00;stop-opacity:1;"
         offset="0"
         id="stop3782" />
      <stop
         style="stop-color:#ffff00;stop-opacity:0;"
         offset="1"
         id="stop3784" />
    </linearGradient>
    <linearGradient
       inkscape:collect="always"
       xlink:href="#linearGradient3780"
       id="linearGradient3786"
       x1="232.63533"
       y1="302.7147"
       x2="399.91661"
       y2="302.7147"
       gradientUnits="userSpaceOnUse" />
  </defs>
  <sodipodi:namedview
     id="base"
     pagecolor="#ffffff"
     bordercolor="#666666"
     borderopacity="1.0"
     inkscape:pageopacity="0.0"
     inkscape:pageshadow="2"
     inkscape:zoom="0.35"
     inkscape:cx="-207.61945"
     inkscape:cy="1067.5815"
     inkscape:document-units="px"
     inkscape:current-layer="layer1"
     showgrid="false"
     inkscape:window-width="1024"
     inkscape:window-height="719"
     inkscape:window-x="0"
     inkscape:window-y="25"
     inkscape:window-maximized="1" />
  <metadata
     id="metadata7">
    <rdf:RDF>
      <cc:Work
         rdf:about="">
        <dc:format>image/svg+xml</dc:format>
        <dc:type
           rdf:resource="http://purl.org/dc/dcmitype/StillImage" />
        <dc:title></dc:title>
      </cc:Work>
    </rdf:RDF>
  </metadata>
  <g
     inkscape:label="Layer 1"
     inkscape:groupmode="layer"
     id="layer1">
    <path
       style="fill:none"
       id="path2985"
       d="m 296.18822,246.68925 c -5.41987,-0.98781 -10.89728,-0.90359 -16.04483,1.22049 -1.3711,0.56576 -5.28067,2.70274 -3.98031,1.98925 2.0018,-1.09836 4.05709,-2.09628 6.08564,-3.14442 -5.30528,4.48625 -10.18272,9.90556 -13.73181,15.90785 -4.14694,7.69888 -5.72138,16.54306 -8.35667,24.85405 -2.34958,7.32425 -3.18484,14.94068 -3.5944,22.58017 -0.30582,9.81046 -0.28093,19.62932 -0.27394,29.44372 0.82851,12.74408 1.76334,25.47262 2.35656,38.23234 0.0765,9.35262 1.67702,18.58872 2.67417,27.86604 0.82137,7.18109 0.84835,14.34626 0.0167,21.51581 -0.41764,3.80915 -1.89473,6.88598 -3.90948,10.0513 0,0 -10.25098,4.46981 -10.25098,4.46981 l 0,0 c 2.18892,-2.96662 3.66551,-5.82751 4.14816,-9.56958 0.88365,-7.09702 0.87974,-14.16956 0.0874,-21.28957 -0.9265,-9.3288 -2.47443,-18.61696 -2.538,-28.0109 -0.52081,-12.77382 -1.50399,-25.50855 -2.40674,-38.25884 -0.0204,-9.81209 -0.14565,-19.62674 0.13689,-29.43658 0.33963,-7.73051 1.15447,-15.42821 3.48414,-22.85081 0.28539,-0.87925 2.55965,-7.86651 2.75463,-8.55112 1.29545,-4.5486 2.05805,-9.47432 3.89898,-13.85521 0.39269,-0.93449 1.02827,-1.74717 1.5424,-2.62075 3.31925,-6.23346 8.47511,-11.62126 13.59531,-16.40767 12.14483,-7.35105 19.27016,-13.18216 33.54289,-10.6159 0,0 -9.23668,6.48052 -9.23668,6.48052 z"
       inkscape:connector-curvature="0" />
    <path
       style="fill:#000000"
       id="path2987"
       d="m 324.27528,139.70417 c -15.04944,4.51145 -29.97633,9.27973 -44.14135,16.11807 0.52039,0.49269 1.91819,0.8567 1.56119,1.47807 -1.96382,3.41805 -5.17407,5.95295 -7.61091,9.05157 -2.4118,3.06677 -4.74956,6.19732 -6.92716,9.4346 -7.16624,10.65353 -12.34507,21.73923 -17.15094,33.58931 -9.08262,26.05775 -10.98897,53.79184 -12.67748,81.12306 -0.888,13.03644 -0.74449,26.10922 -0.32189,39.15866 0.19823,6.12128 1.05287,12.2328 0.84828,18.35387 -0.0846,2.53065 -0.63944,5.02359 -0.95916,7.53538 0,0 -9.78107,4.81602 -9.78107,4.81602 l 0,0 c 0.36607,-2.46113 0.97599,-4.89818 1.09822,-7.38339 0.30298,-6.16021 -0.48985,-12.32612 -0.63593,-18.49206 -0.31038,-13.10129 -0.47498,-26.22454 0.42464,-39.30966 1.74937,-27.38965 3.41646,-55.23476 12.44481,-81.38251 6.56935,-16.50384 12.98588,-29.14461 23.88036,-43.29358 2.40052,-3.11762 4.50232,-6.55056 7.45231,-9.15433 5.21102,-4.59943 11.22944,-8.19374 16.84416,-12.29061 14.33447,-6.7726 29.42634,-11.40174 44.49028,-16.27158 0,0 -8.83836,6.91911 -8.83836,6.91911 z"
       inkscape:connector-curvature="0" />
    <path
       style="fill:#000000"
       id="path2989"
       d="m 337.61027,133.63596 c 5.95331,5.48583 12.58881,10.09693 19.00004,15.00445 10.5977,11.76734 18.5018,25.58218 26.63508,39.08461 7.34912,13.59201 10.08947,29.17174 13.82183,44.03453 2.78756,11.65029 6.38435,23.14126 7.96984,35.04656 0.9268,6.95923 1.17757,12.07663 1.67461,19.09707 0.96823,13.25391 0.61779,26.55532 1.98311,39.77631 0.95534,7.18984 1.55825,14.4052 1.8305,21.65053 0.47134,4.2179 1.03931,8.42245 2.19521,12.50785 0,0 -9.85948,5.37191 -9.85948,5.37191 l 0,0 c -1.18617,-4.17172 -1.75428,-8.46166 -2.2853,-12.76429 -0.25745,-7.23394 -0.82875,-14.44361 -1.71694,-21.62926 -1.30573,-13.29099 -0.79467,-26.64196 -1.68876,-39.96555 -1.31493,-18.34893 -4.19866,-36.33468 -9.52258,-53.99551 -3.71252,-14.75182 -6.79592,-30.06106 -13.91898,-43.61969 -7.89607,-13.47679 -15.59044,-27.35232 -26.50475,-38.67031 -6.47019,-4.94176 -13.16223,-9.5874 -19.24272,-15.02837 0,0 9.62929,-5.90084 9.62929,-5.90084 z"
       inkscape:connector-curvature="0" />
    <path
       style="fill:#000000"
       id="path2991"
       d="m 236.46685,351.50387 c -0.10962,8.73183 -0.10039,17.46465 -0.11222,26.19702 0.18486,8.70609 -0.78234,17.40078 -2.76883,25.86814 -1.00645,5.64011 -4.40361,11.16518 3.90531,6.76735 -2.28589,1.15531 -4.35102,2.93983 -6.85765,3.46591 -1.28686,0.27008 1.95237,-1.76184 2.92967,-2.64152 4.87231,-4.38562 8.15229,-9.0823 11.55162,-14.68967 5.80646,-9.47335 8.3,-20.49361 13.7596,-30.10326 10.90549,-12.82631 16.31584,-9.716 21.26981,1.13747 4.36696,10.48353 6.92808,21.57915 9.96515,32.4906 1.85014,8.39955 4.19581,16.67311 6.26306,25.01993 2.55053,12.69636 5.01599,25.4298 8.79219,37.83948 0.64639,0.9179 2.04997,4.13519 4.1222,3.69689 0.90816,-0.19208 3.14817,-1.90632 2.26527,-1.61973 -2.34771,0.76208 -4.36921,3.76594 -6.73782,3.07154 -1.64756,-0.48301 2.1326,-2.69983 3.04525,-4.15408 1.12957,-1.79987 2.04569,-3.72518 3.06854,-5.58777 5.63727,-12.21069 9.18725,-25.32087 12.57644,-38.31023 3.15694,-9.84037 4.81356,-20.05291 7.32759,-30.04601 2.63355,-6.47736 6.49152,-8.0266 14.31647,-10.69753 1.59131,-0.54317 5.28042,5.04736 5.89132,5.87713 4.09855,4.02982 5.25816,9.81346 8.50844,14.34196 2.18271,2.24492 4.52363,3.02761 7.53343,2.1486 0.69032,-0.20161 2.65982,-1.06631 2.04056,-0.70065 -2.54221,1.5011 -5.22547,2.74933 -7.83821,4.12399 4.97706,-5.86106 4.81659,-14.55114 5.83453,-21.8411 1.8347,-8.59321 0.55352,-17.71663 3.11829,-26.13337 8.00267,-11.05406 11.79138,-6.03861 17.88309,-1.21775 3.7352,3.17683 8.58444,3.42532 13.06142,4.76442 2.99842,0.90513 1.48928,0.48339 4.52749,1.26489 0,0 -9.27896,6.384 -9.27896,6.384 l 0,0 c -3.05569,-0.81909 -1.5423,-0.39029 -4.54058,-1.28501 -4.64381,-1.26125 -9.50228,-1.84901 -13.31106,-5.11725 -1.64496,-1.25878 -3.3452,-2.39094 -4.94706,-3.70338 -0.34861,-0.28562 -1.40121,-0.56207 -1.05294,-0.8481 1.90759,-1.56666 13.05475,-8.04684 7.83048,-5.00105 -3.24123,8.16357 -1.31055,17.51467 -3.36329,26.00557 -1.03616,7.53684 -0.89498,16.08321 -5.29523,22.55946 -7.42043,4.45789 -14.51562,11.686 -21.90515,4.31776 -3.18336,-4.57366 -4.39447,-10.28598 -8.45142,-14.34155 -1.23974,-1.63737 -1.9942,-2.92887 -3.69786,-4.10937 -0.46319,-0.32094 -1.97704,-0.2775 -1.55855,-0.65488 2.37366,-2.14049 5.32975,-3.53191 8.05441,-5.20289 0.65365,-0.40087 -1.36321,0.78317 -1.83427,1.3882 -0.66631,0.85582 -0.99744,1.92632 -1.49617,2.88949 -2.74606,9.94247 -4.08023,20.26162 -7.38907,30.07482 -3.46701,13.04566 -7.10525,26.19558 -12.52587,38.56927 -5.66506,10.92793 -5.43357,10.66768 -18.17589,18.16975 -3.7983,2.23626 -5.59852,-0.80721 -7.29067,-3.78181 -3.65044,-12.44821 -6.1341,-25.19121 -8.88631,-37.85076 -2.03214,-8.34943 -4.52566,-16.57603 -6.22882,-25.00482 -2.93131,-10.87046 -5.3565,-21.96196 -9.94808,-32.28978 -1.124,-2.40491 -2.27406,-5.9371 -4.80887,-7.34465 -0.61579,-0.34195 -2.54242,0.0227 -2.05621,-0.48696 1.48873,-1.56043 11.51806,-8.40079 5.54362,-3.33613 -5.92369,9.41206 -8.1136,20.63102 -13.90224,30.16472 -7.5827,12.92484 -12.71861,17.73988 -26.50535,25.32312 -8.66326,3.33961 -6.65601,-3.22652 -5.18417,-8.91526 2.08359,-8.39311 3.16826,-17.02502 2.99923,-25.68823 -0.0118,-8.69425 -0.002,-17.38897 -0.11221,-26.08267 0,0 10.07655,-5.13426 10.07655,-5.13426 z"
       inkscape:connector-curvature="0" />
    <path
       sodipodi:type="arc"
       style="fill:#ffffff;stroke:#000000;stroke-opacity:1"
       id="path2993"
       sodipodi:cx="281.42856"
       sodipodi:cy="256.64789"
       sodipodi:rx="21.428572"
       sodipodi:ry="38.57143"
       d="m 302.85713,256.64789 a 21.428572,38.57143 0 1 1 -42.85714,0 21.428572,38.57143 0 1 1 42.85714,0 z" />
    <path
       transform="translate(64.285731,-7.1428486)"
       sodipodi:type="arc"
       style="fill:#ffffff;stroke:#000000;stroke-opacity:1"
       id="path2993-3"
       sodipodi:cx="281.42856"
       sodipodi:cy="256.64789"
       sodipodi:rx="21.428572"
       sodipodi:ry="38.57143"
       d="m 302.85713,256.64789 a 21.428572,38.57143 0 1 1 -42.85714,0 21.428572,38.57143 0 1 1 42.85714,0 z" />
    <path
       transform="matrix(0.67564054,0,0,0.56054105,94.141172,125.64336)"
       sodipodi:type="arc"
       style="fill:#000000;stroke:#000000;stroke-opacity:1"
       id="path2993-5"
       sodipodi:cx="281.42856"
       sodipodi:cy="256.64789"
       sodipodi:rx="21.428572"
       sodipodi:ry="38.57143"
       d="m 302.85713,256.64789 a 21.428572,38.57143 0 1 1 -42.85714,0 21.428572,38.57143 0 1 1 42.85714,0 z" />
    <path
       transform="matrix(0.67564054,0,0,0.56054105,152.7126,125.64336)"
       sodipodi:type="arc"
       style="fill:#000000;stroke:#000000;stroke-opacity:1"
       id="path2993-5-9"
       sodipodi:cx="281.42856"
       sodipodi:cy="256.64789"
       sodipodi:rx="21.428572"
       sodipodi:ry="38.57143"
       d="m 302.85713,256.64789 a 21.428572,38.57143 0 1 1 -42.85714,0 21.428572,38.57143 0 1 1 42.85714,0 z" />
    <path
       style="fill:#b3b3b3;stroke:#000000;stroke-opacity:1"
       id="path3810"
       d="m 294.35191,318.57244 c 4.5398,2.70215 9.78196,3.57342 14.94103,4.2296 7.165,0.53134 14.35488,-0.80552 21.49034,-1.47033 1.19782,-0.26062 4.64116,-0.97785 5.87413,-1.3662 0.89834,-0.28295 3.43046,-1.52252 2.63678,-1.01542 -2.21032,1.4122 -4.52797,2.66889 -6.91754,3.75046 -0.97483,0.44123 1.76417,-1.21146 2.64626,-1.81718 0,0 10.30513,-4.05691 10.30513,-4.05691 l 0,0 c -7.1847,5.08561 -14.50268,10.17087 -23.40883,11.0725 -7.20121,0.67573 -14.45978,2.01559 -21.69507,1.309 -5.32633,-0.75066 -10.67846,-1.79162 -15.38261,-4.54612 0,0 9.51038,-6.0894 9.51038,-6.0894 z"
       inkscape:connector-curvature="0" />
    <path
       style="fill:url(#linearGradient3786);stroke:#000000;stroke-width:2.85714293000000019;stroke-opacity:1;fill-opacity:1"
       d="m 297.17792,422.65371 c -9.65108,-40.27314 -17.19793,-61.97977 -22.73956,-65.40469 -6.24937,-3.86232 -15.11931,5.0577 -24.7911,24.93107 -9.43478,19.38638 -18.648,32.86504 -14.60704,21.36966 0.95612,-2.71987 2.45082,-31.00558 3.32158,-62.85714 1.99557,-72.99657 3.62039,-93.63366 9.0586,-115.05479 5.237,-20.62855 20.70569,-50.91341 32.33359,-63.30328 10.6524,-11.35044 42.6522,-22.87747 51.04304,-18.38683 8.88424,4.7547 29.81134,29.47928 38.55764,45.5544 13.37201,24.57688 24.52662,75.17623 27.45001,124.51832 1.40269,23.67528 2.0606,43.54155 1.46201,44.14727 -0.5986,0.60572 -4.29753,-1.00143 -8.21986,-3.57143 -14.78801,-9.68948 -20.66694,-4.67153 -23.19862,19.80115 -2.6389,25.50919 -3.40984,26.4896 -11.48513,14.60575 -13.22293,-19.45929 -23.72683,-11.31156 -32.49518,25.20608 -3.39588,14.14285 -8.41816,30.7886 -11.16063,36.99057 l -4.9863,11.27625 -9.54305,-39.82236 z m 41.96494,-98.63616 c 9.21453,-5.79082 7.92618,-8.57096 -2.85715,-6.16545 -11.77128,2.62591 -30.4376,2.64019 -37.85714,0.029 -3.47368,-1.22251 -7.94944,-0.3319 -11.41465,2.27137 -4.91433,3.69191 -5.11132,4.68083 -1.42857,7.17165 5.97406,4.04055 45.77681,1.5832 53.55751,-3.30654 l 0,0 z m -42.46846,-37.1026 c 16.50261,-27.13637 2.68059,-76.94376 -19.40717,-69.93338 -18.83544,5.97814 -24.7657,48.98495 -9.886,71.69424 6.98008,10.65295 22.30406,9.7318 29.29317,-1.76086 l 0,0 z m 55.73482,1.51716 c 16.58641,-10.86783 21.53231,-51.60582 8.40884,-69.26126 -6.44043,-8.66452 -18.91632,-11.64387 -25.58448,-6.10979 -11.42497,9.48189 -15.5504,35.55911 -9.16923,57.95956 5.90736,20.73719 13.55514,25.79165 26.34487,17.41149 z"
       id="path3812"
       inkscape:connector-curvature="0" />
    <path
       style="fill:#ff0000;stroke:#000000;stroke-opacity:1"
       id="path3822"
       d="m 295.34232,316.83348 c 6.78316,4.43697 12.00856,12.91568 20.43963,14.36784 1.26769,0.21835 2.57256,0.0278 3.85884,0.0417 7.35671,-1.34149 13.67535,-5.78466 20.70716,-8.31019 0.9219,-0.42752 3.62906,-1.81855 2.7657,-1.28255 -8.68802,5.39379 -6.47402,4.09828 -16.57954,4.30237 -9.1269,1.07094 -18.30658,2.19188 -27.07541,5.02704 -4.02115,1.5656 -8.15873,2.6972 -12.37091,3.59155 -5.56851,1.18233 -3.24986,1.07525 7.28383,-4.74024 5.50205,1.03026 11.09428,1.58329 16.70243,1.89252 6.08911,0.21883 12.11789,0.84542 17.9859,-1.02055 5.20183,-2.47199 3.75867,-1.84654 -4.07031,2.387 0,0 10.32374,-4.03795 10.32374,-4.03795 l 0,0 c -13.01589,7.73165 -7.77439,5.36628 -15.05178,8.42964 -5.96042,1.55857 -12.0653,0.91665 -18.17098,0.68862 -5.93321,-0.36891 -12.78226,-0.19452 -17.93782,-3.38695 3.23267,-2.16916 6.34278,-4.53319 9.698,-6.50749 0.61035,-0.35915 1.38964,-0.27419 2.08179,-0.42401 4.1597,-0.90046 8.20521,-2.18175 12.21871,-3.5929 8.85274,-2.58404 18.01794,-3.85049 27.18422,-4.73218 2.38486,-0.0626 9.19259,-1.46231 10.98993,1.22231 1.11761,1.66933 -10.39965,7.25847 -14.68262,8.99106 -6.98018,2.64442 -13.40084,7.21866 -20.93016,7.92279 -1.32459,-0.11446 -2.68112,-0.0324 -3.97378,-0.34336 -8.44816,-2.03213 -13.64988,-10.28615 -20.83719,-14.58245 0,0 9.44062,-5.90361 9.44062,-5.90361 z"
       inkscape:connector-curvature="0" />
  </g>
</svg>
